<svg width="28" height="28" viewBox="0 0 28 28" fill="none" xmlns="http://www.w3.org/2000/svg">
<path fill-rule="evenodd" clip-rule="evenodd" d="M21.0675 18.7219C21.7208 17.7442 22.161 16.6464 22.3666 15.4995H15C13.6193 15.4995 12.5 14.3802 12.5 12.9995V5.63292C11.3532 5.83854 10.2553 6.27877 9.27766 6.93203C7.87984 7.86602 6.79037 9.19354 6.14703 10.7467C5.50368 12.2999 5.33536 14.009 5.66333 15.6578C5.9913 17.3066 6.80085 18.8212 7.9896 20.0099C9.17834 21.1987 10.6929 22.0082 12.3417 22.3362C13.9906 22.6642 15.6996 22.4958 17.2528 21.8525C18.806 21.2092 20.1335 20.1197 21.0675 18.7219ZM23 13.9995C23.5523 13.9995 24.0052 14.4484 23.95 14.9979C23.787 16.623 23.2277 18.1888 22.3147 19.5552C21.2159 21.1997 19.6541 22.4814 17.8268 23.2383C15.9996 23.9952 13.9889 24.1932 12.0491 23.8074C10.1093 23.4215 8.32746 22.4691 6.92894 21.0706C5.53041 19.6721 4.578 17.8902 4.19215 15.9504C3.8063 14.0106 4.00433 11.9999 4.76121 10.1727C5.51809 8.34543 6.79981 6.78364 8.4443 5.68483C9.81071 4.77183 11.3766 4.21253 13.0016 4.04948C13.5512 3.99434 14 4.44724 14 4.99952V12.9995C14 13.5518 14.4477 13.9995 15 13.9995H23ZM16.9998 11.0002L16.9998 5.66275C18.2964 5.94723 19.4963 6.59719 20.4496 7.55044C21.4028 8.50369 22.0528 9.70361 22.3372 11.0002H16.9998ZM15.4998 5.00018C15.4998 4.4479 15.9491 3.9941 16.4976 4.05892C18.3844 4.2819 20.1531 5.1327 21.5102 6.48978C22.8673 7.84685 23.7181 9.61556 23.9411 11.5024C24.0059 12.0509 23.5521 12.5002 22.9998 12.5002H16.4998C15.9475 12.5002 15.4998 12.0525 15.4998 11.5002L15.4998 5.00018Z" fill="#4865FF"/>
</svg>
