<svg width="28" height="28" viewBox="0 0 28 28" fill="none" xmlns="http://www.w3.org/2000/svg">
<path fill-rule="evenodd" clip-rule="evenodd" d="M7 4.5L16.25 4.5V7C16.25 8.51878 17.4812 9.75 19 9.75L21.5 9.75V23C21.5 23.2761 21.2761 23.5 21 23.5H7C6.72386 23.5 6.5 23.2761 6.5 23L6.5 5C6.5 4.72386 6.72386 4.5 7 4.5ZM17.75 7V4.87132L21.1287 8.25L19 8.25C18.3096 8.25 17.75 7.69036 17.75 7ZM7 25H21C22.1046 25 23 24.1046 23 23V8.82843C23 8.29799 22.7893 7.78929 22.4142 7.41421L18.5858 3.58579C18.2107 3.21071 17.702 3 17.1716 3H7C5.89543 3 5 3.89543 5 5V23C5 24.1046 5.89543 25 7 25ZM9 11.25C8.58579 11.25 8.25 11.5858 8.25 12C8.25 12.4142 8.58579 12.75 9 12.75H19C19.4142 12.75 19.75 12.4142 19.75 12C19.75 11.5858 19.4142 11.25 19 11.25H9ZM8.25 15.5C8.25 15.0858 8.58579 14.75 9 14.75H17C17.4142 14.75 17.75 15.0858 17.75 15.5C17.75 15.9142 17.4142 16.25 17 16.25H9C8.58579 16.25 8.25 15.9142 8.25 15.5ZM9 18.25C8.58579 18.25 8.25 18.5858 8.25 19C8.25 19.4142 8.58579 19.75 9 19.75H14C14.4142 19.75 14.75 19.4142 14.75 19C14.75 18.5858 14.4142 18.25 14 18.25H9Z" fill="#4865FF"/>
</svg>
