<svg width="28" height="28" viewBox="0 0 28 28" fill="none" xmlns="http://www.w3.org/2000/svg">
<path fill-rule="evenodd" clip-rule="evenodd" d="M7 5.5H21C21.2761 5.5 21.5 5.72386 21.5 6V9.91409C21.8718 9.64275 22.3173 9.5 22.772 9.5C22.8477 9.5 22.9238 9.50387 23 9.51175V6C23 4.89543 22.1046 4 21 4H7C5.89543 4 5 4.89543 5 6V22C5 23.1046 5.89543 24 7 24H11.5V22.5H7C6.72386 22.5 6.5 22.2761 6.5 22V6C6.5 5.72386 6.72386 5.5 7 5.5ZM13 22.5V23H15.4997L15.9996 22.5H13ZM18.1208 22.5H21C21.2761 22.5 21.5 22.2761 21.5 22V19.1203L23 17.6201V22C23 23.1046 22.1046 24 21 24H16.621L18.1208 22.5ZM23 11.0379V14.3281L21.5 12.8278V11.9988L22.3054 11.1933C22.432 11.0667 22.5987 11 22.772 11C22.8502 11 22.927 11.0122 23 11.0379ZM21.5 14.2545L22.872 15.6267L21.5 16.9988V14.2545Z" fill="#4865FF"/>
<path fill-rule="evenodd" clip-rule="evenodd" d="M10.25 4C10.25 3.58579 9.91421 3.25 9.5 3.25C9.08579 3.25 8.75 3.58579 8.75 4L8.75 6C8.75 6.41421 9.08579 6.75 9.5 6.75C9.91421 6.75 10.25 6.41421 10.25 6V4ZM6 9H22V7.5H6V9ZM12.5 3.25C12.9142 3.25 13.25 3.58579 13.25 4V6C13.25 6.41421 12.9142 6.75 12.5 6.75C12.0858 6.75 11.75 6.41421 11.75 6V4C11.75 3.58579 12.0858 3.25 12.5 3.25ZM16.25 4C16.25 3.58579 15.9142 3.25 15.5 3.25C15.0858 3.25 14.75 3.58579 14.75 4V6C14.75 6.41421 15.0858 6.75 15.5 6.75C15.9142 6.75 16.25 6.41421 16.25 6V4ZM18.5 3.25C18.9142 3.25 19.25 3.58579 19.25 4V6C19.25 6.41421 18.9142 6.75 18.5 6.75C18.0858 6.75 17.75 6.41421 17.75 6V4C17.75 3.58579 18.0858 3.25 18.5 3.25ZM24.805 12.7533C25.065 13.0133 25.065 13.4333 24.805 13.6933L23.5852 14.9133L21.0855 12.4133L22.3054 11.1933C22.432 11.0667 22.5987 11 22.772 11C22.9453 11 23.1119 11.06 23.2452 11.1933L24.805 12.7533ZM13 23V20.5L20.3723 13.1267L22.872 15.6267L15.4997 23H13ZM14.3331 21.6667H14.9464L20.9856 15.6267L20.3723 15.0133L14.3331 21.0533V21.6667Z" fill="#4865FF"/>
</svg>
