<svg width="28" height="28" viewBox="0 0 28 28" fill="none" xmlns="http://www.w3.org/2000/svg">
<path fill-rule="evenodd" clip-rule="evenodd" d="M5 6.5H23C23.2761 6.5 23.5 6.72386 23.5 7V20C23.5 20.2761 23.2761 20.5 23 20.5H5C4.72386 20.5 4.5 20.2761 4.5 20V7C4.5 6.72386 4.72386 6.5 5 6.5ZM3 7C3 5.89543 3.89543 5 5 5H23C24.1046 5 25 5.89543 25 7V20C25 21.1046 24.1046 22 23 22H5C3.89543 22 3 21.1046 3 20V7ZM10.5 12.9167C10.5 13.5583 9.975 14.0833 9.33333 14.0833C8.69167 14.0833 8.16667 13.5583 8.16667 12.9167C8.16667 12.275 8.69167 11.75 9.33333 11.75C9.975 11.75 10.5 12.275 10.5 12.9167ZM9.33333 14.6667C9.56083 14.6667 9.77667 14.69 9.9925 14.725C9.75917 15.1217 9.625 15.5767 9.625 16.0608V17H7V16.0842C7 15.6117 7.28 15.1917 7.71167 15.005C8.2075 14.7892 8.75583 14.6667 9.33333 14.6667ZM19.8333 12.9167C19.8333 13.5583 19.3083 14.0833 18.6667 14.0833C18.025 14.0833 17.5 13.5583 17.5 12.9167C17.5 12.275 18.025 11.75 18.6667 11.75C19.3083 11.75 19.8333 12.275 19.8333 12.9167ZM20.2883 15.005C20.72 15.1917 21 15.6117 21 16.0842V17H18.375V16.0608C18.375 15.5767 18.2408 15.1217 18.0075 14.725C18.2233 14.69 18.4392 14.6667 18.6667 14.6667C19.2442 14.6667 19.7925 14.7892 20.2883 15.005ZM14 13.9375C14.9508 13.9375 15.7908 14.1592 16.4733 14.4625C17.1033 14.7425 17.5 15.3725 17.5 16.0608V17H10.5V16.0608C10.5 15.3725 10.8967 14.7425 11.5267 14.4625C12.2092 14.165 13.0492 13.9375 14 13.9375ZM11.7125 15.8205C11.7109 15.8247 11.7092 15.829 11.7075 15.8333H16.2925C16.29 15.8276 16.2876 15.8219 16.2852 15.8163C16.2314 15.691 16.1916 15.5983 15.7617 15.4308C15.1958 15.2092 14.6008 15.1042 14 15.1042C13.3992 15.1042 12.8042 15.2092 12.2383 15.4308C11.798 15.6002 11.762 15.6931 11.7125 15.8205ZM14.5833 11.75C14.5833 11.4292 14.3208 11.1667 14 11.1667C13.6792 11.1667 13.4167 11.4292 13.4167 11.75C13.4167 12.0708 13.6792 12.3333 14 12.3333C14.3208 12.3333 14.5833 12.0708 14.5833 11.75ZM12.25 11.75C12.25 10.7817 13.0317 10 14 10C14.9683 10 15.75 10.7817 15.75 11.75C15.75 12.7183 14.9683 13.5 14 13.5C13.0317 13.5 12.25 12.7183 12.25 11.75Z" fill="#4865FF"/>
</svg>
