<svg width="28" height="28" viewBox="0 0 28 28" fill="none" xmlns="http://www.w3.org/2000/svg">
<path fill-rule="evenodd" clip-rule="evenodd" d="M4.5 12.5V8.5H8.5V12.5H4.5ZM3 8C3 7.44772 3.44772 7 4 7H9C9.55228 7 10 7.44772 10 8V13C10 13.5523 9.55228 14 9 14H4C3.44772 14 3 13.5523 3 13V8ZM12.25 8C12.25 7.58579 12.5858 7.25 13 7.25H24C24.4142 7.25 24.75 7.58579 24.75 8C24.75 8.41421 24.4142 8.75 24 8.75H13C12.5858 8.75 12.25 8.41421 12.25 8ZM12.25 14C12.25 13.5858 12.5858 13.25 13 13.25H24C24.4142 13.25 24.75 13.5858 24.75 14C24.75 14.4142 24.4142 14.75 24 14.75H13C12.5858 14.75 12.25 14.4142 12.25 14ZM13 19.25C12.5858 19.25 12.25 19.5858 12.25 20C12.25 20.4142 12.5858 20.75 13 20.75L24 20.75C24.4142 20.75 24.75 20.4142 24.75 20C24.75 19.5858 24.4142 19.25 24 19.25L13 19.25ZM9.53033 17.4697C9.82322 17.7626 9.82322 18.2374 9.53033 18.5303L7.23744 20.8232C6.55402 21.5066 5.44598 21.5066 4.76256 20.8232L3.46967 19.5303C3.17678 19.2374 3.17678 18.7626 3.46967 18.4697C3.76256 18.1768 4.23744 18.1768 4.53033 18.4697L5.82322 19.7626C5.92085 19.8602 6.07915 19.8602 6.17678 19.7626L8.46967 17.4697C8.76256 17.1768 9.23744 17.1768 9.53033 17.4697Z" fill="#4865FF"/>
</svg>
